<?xml version="1.0" encoding="UTF-8" standalone="no"?>
<!-- Created with Inkscape (http://www.inkscape.org/) -->

<svg
   xmlns:dc="http://purl.org/dc/elements/1.1/"
   xmlns:cc="http://creativecommons.org/ns#"
   xmlns:rdf="http://www.w3.org/1999/02/22-rdf-syntax-ns#"
   xmlns:svg="http://www.w3.org/2000/svg"
   xmlns="http://www.w3.org/2000/svg"
   xmlns:sodipodi="http://sodipodi.sourceforge.net/DTD/sodipodi-0.dtd"
   xmlns:inkscape="http://www.inkscape.org/namespaces/inkscape"
   width="1746.17"
   height="1240.3199"
   id="svg3129"
   version="1.1"
   inkscape:version="0.48.3.1 r9886"
   sodipodi:docname="background_cronograma.svg"
   inkscape:export-filename="/home/santiago/temp/2011/background_cronograma.png"
   inkscape:export-xdpi="120"
   inkscape:export-ydpi="120">
  <defs
     id="defs3131" />
  <sodipodi:namedview
     id="base"
     pagecolor="#ffffff"
     bordercolor="#666666"
     borderopacity="1.0"
     inkscape:pageopacity="0.0"
     inkscape:pageshadow="2"
     inkscape:zoom="0.35"
     inkscape:cx="389.38557"
     inkscape:cy="539.33983"
     inkscape:document-units="px"
     inkscape:current-layer="layer1"
     showgrid="false"
     inkscape:window-width="1680"
     inkscape:window-height="1021"
     inkscape:window-x="1366"
     inkscape:window-y="0"
     inkscape:window-maximized="1" />
  <metadata
     id="metadata3134">
    <rdf:RDF>
      <cc:Work
         rdf:about="">
        <dc:format>image/svg+xml</dc:format>
        <dc:type
           rdf:resource="http://purl.org/dc/dcmitype/StillImage" />
        <dc:title></dc:title>
      </cc:Work>
    </rdf:RDF>
  </metadata>
  <g
     inkscape:label="Layer 1"
     inkscape:groupmode="layer"
     id="layer1"
     transform="translate(0,187.95782)">
    <path
       style="fill:none;fill-opacity:1;stroke:#0066ff;stroke-width:11.71700000999999958;stroke-linecap:round;stroke-linejoin:round;stroke-miterlimit:4;stroke-opacity:1;stroke-dasharray:none"
       d="M 1744.7142 96.301789 C 1743.3813 68.417069 1716.5077 45.255394 1688.6873 47.83253 C 1154.2081 47.78653 619.72896 47.78663 85.2498 47.83292 L 85.25 47.83282 L 85.25 47.83282 C 59.011622 47.645525 35.642045 70.543326 34.112931 96.39291 "
       id="path3958"
       transform="translate(0,-187.95782)" />
    <path
       style="fill:none;stroke:#0066ff;stroke-width:11.71700001;stroke-linecap:round;stroke-linejoin:round;stroke-miterlimit:4;stroke-opacity:1;stroke-dasharray:none"
       d="m 1744.8167,230.56143 c -0.022,-67.37481 -0.054,-134.74944 -0.098,-202.12383 0,-0.03122 0,-0.06243 0,-0.09363"
       id="path3956"
       inkscape:connector-curvature="0" />
    <path
       style="fill:none;stroke:#0066ff;stroke-width:8.70528507000000040;stroke-linecap:round;stroke-linejoin:round;stroke-miterlimit:4;stroke-opacity:1;stroke-dasharray:none"
       d="M 34.369314 1206.0417 C 34.429395 1208.2283 34.503272 1210.4145 34.593751 1212.6001 C 37.928578 1227.1166 63.767974 1238.6393 90.250001 1237.3019 C 625.60362 1237.3019 1160.9616 1237.3859 1696.3125 1237.2499 C 1724.0321 1236.4998 1747.3809 1221.7955 1744.7826 1206.4763 C 1744.7826 1206.3305 1744.7827 1206.1847 1744.7827 1206.0388 "
       id="path3965"
       transform="translate(0,-187.95782)" />
    <path
       style="fill:none;stroke:#0066ff;stroke-width:8.70528507;stroke-linecap:round;stroke-linejoin:round;stroke-miterlimit:4;stroke-opacity:1;stroke-dasharray:none"
       d="m 974.12194,629.49024 c 0.005,36.6974 0.003,73.3948 -0.0149,110.0922 0.23494,18.5427 -0.24703,37.1098 0.26223,55.6443"
       id="path3963"
       inkscape:connector-curvature="0" />
    <path
       style="fill:none;stroke:#0066ff;stroke-width:8.70528507;stroke-linecap:round;stroke-linejoin:round;stroke-miterlimit:4;stroke-opacity:1;stroke-dasharray:none"
       d="m 132.10838,493.19549 c -0.0745,107.05061 -6.1e-4,214.10125 0.0136,321.15189"
       id="path3954"
       inkscape:connector-curvature="0" />
    <path
       style="fill:none;stroke:#0066ff;stroke-width:11.71700001;stroke-linecap:round;stroke-linejoin:round;stroke-miterlimit:4;stroke-opacity:1;stroke-dasharray:none"
       d="m 34.112931,28.43509 c -0.136959,2.315277 -0.09871,4.65423 0.128388,7.0024 -0.06625,65.07289 -0.107945,130.1458 -0.132935,195.2187"
       id="rect3853"
       inkscape:connector-curvature="0" />
    <rect
       style="fill:#0066ff;fill-opacity:1;stroke:none"
       id="rect3102"
       width="85.161308"
       height="1202.9468"
       x="-179.83763"
       y="-1697.2749"
       ry="42.952309"
       transform="matrix(0,1,-1,0,0,0)" />
    <text
       xml:space="preserve"
       style="font-size:55.68774414px;font-style:normal;font-variant:normal;font-weight:normal;font-stretch:normal;line-height:125%;letter-spacing:0px;word-spacing:0px;fill:#000000;fill-opacity:1;stroke:none;font-family:Century Gothic;-inkscape-font-specification:Century Gothic"
       x="691.09882"
       y="-126.54718"
       id="text3849"
       sodipodi:linespacing="125%"
       transform="matrix(0.97313761,0.01076992,-0.01020019,1.027491,0,0)"><tspan
         sodipodi:role="line"
         id="tspan3851"
         x="691.09882"
         y="-126.54718"
         style="font-size:55.68774414px;font-weight:bold;fill:#ffffff;-inkscape-font-specification:Century Gothic Bold">Cronograma de actividades</tspan></text>
  </g>
</svg>
